<?xml version="1.0" encoding="utf-8"?>
<!-- Generator: Adobe Illustrator 20.1.0, SVG Export Plug-In . SVG Version: 6.00 Build 0)  -->
<svg version="1.1" id="Laag_1" xmlns="http://www.w3.org/2000/svg" xmlns:xlink="http://www.w3.org/1999/xlink" x="0px" y="0px"
	 viewBox="0 0 425.2 283.5" style="enable-background:new 0 0 425.2 283.5;" xml:space="preserve">
<path d="M145.7,120.7c-0.2-0.9-0.3-2.3-0.6-3.1c-0.3-1.1-0.3-1.4-0.5-2.2c-0.2-0.8-0.2-0.7-0.7-2.5c-0.9-3.2-2.4-6.5-3.9-9.5
	c-1-2-2.3-3.6-3.6-5.3c-0.3-0.4-1-1.2-1.2-1.6c-0.5-0.7-3.4-4-4.3-4.8c-0.9-0.8-1.7-1.6-2.7-2.3c-1-0.8-1.9-1.5-2.9-2.3
	c-0.8-0.6-1.6-0.9-2.5-1.5c-4.4-2.8-9.3-4.9-14.4-6c-17-3.9-36.9,1.8-47.9,15.7c-1.2,1.5-4.3,5.9-4.8,6.6c-1,1.7-1.8,3.2-2.6,5
	c-3.1,6.9-5,15.2-4.4,23.2c0.3,4.4,1.2,8.9,2.7,13c0.5,1.3,0.9,2.6,1.5,3.8c0.4,0.8,1.5,2.8,1.6,2.9c-9.1,4-15.4,13.1-15.4,23.6
	c0,14.3,11.6,25.9,25.9,25.9c3.1,0,6-0.6,8.8-1.6c0,0.1,0.1,0.2,0.1,0.3c1.4,5.6,6.5,9.8,12.6,9.8c7.2,0,13-5.8,13-13
	c0-6.2-4.3-11.3-10.1-12.7c0-0.1,0.1-0.3,0.1-0.4c0.2-0.5,0.3-1.1,0.5-1.6c0.2-0.7,0.4-1.4,0.5-2.1c0.1-0.4,0.1-0.8,0.2-1.3
	c0.1-0.5,0.1-1,0.2-1.5c0.1-0.1,0.3,0,0.6,0c2.8,0.1,5.6,0.6,8.5,0.4c5.3-0.3,11-1.3,15.8-3.5c5.1-2.2,9.9-5.1,14.1-8.8
	c2-1.7,3.9-3.7,5.4-5.8c0.8-1,1.6-1.9,2.3-3c0.6-0.9,1.2-1.8,1.8-2.7c0.4-0.7,0.4-1,0.8-1.7c0.2-0.4,0.5-0.8,0.6-1.2
	c0.3-1,0.5-2,0.5-3c0.1-2-0.5-4-1.7-5.7c-1-1.4-3.1-2.8-4.8-3.2c-2-0.5-4.2-0.4-6.1,0.3c-2.1,0.8-3.6,2.6-4.7,4.5
	c-1.2,2.1-2.4,4-4.2,5.7c-3.2,3.2-6.7,5.8-11,7.5c-16.3,6.6-35.2-2.4-40.6-19.1c-2.5-7.8-1.8-16.5,2.2-23.7c2.1-3.8,4.9-7.1,8.3-9.8
	c1.8-1.4,3.9-2.8,6-3.7c1.9-0.8,3.8-1.2,5.8-1.9c1.5-0.5,3.6-0.7,5.2-0.8c1.7-0.1,3.5-0.2,5.2,0.1c3.5,0.6,7.1,1.4,10.3,3
	c1.7,0.9,3.6,2.1,5.2,3.4c1.6,1.2,3.2,2.8,4.5,4.4c1,1.3,1.6,2.2,2.5,3.6c1,1.5,2.4,3.2,2.5,5.2c-4,0-8.2,0-12.2,0
	c-3.9,0-8.1-0.9-11.8,1c-3.8,1.9-6.7,7.4-4.3,11.4c1.1,1.9,1.7,3.5,3.9,4.6c2.1,1.1,4.1,1.2,6.4,1.2c5.6-0.1,11.2,0,16.7,0h8.7
	c2.5,0,4.9,0.1,7.2-0.8c3.9-1.5,5.8-5.3,5.5-9.4C145.8,123,145.7,121.9,145.7,120.7z M95.4,195.1c0,5-4,9-9,9c-5,0-9-4-9-9
	c0-5,4-9,9-9C91.4,186.1,95.4,190.1,95.4,195.1z M82.2,173.6c0,9.6-7.8,17.4-17.4,17.4c-9.6,0-17.4-7.8-17.4-17.4
	c0-9.6,7.8-17.4,17.4-17.4C74.4,156.2,82.2,164,82.2,173.6z M208.9,157c0,1.4-0.8,2.1-2.3,2.1c-1.1,0-2-0.4-2.9-1.1
	c-0.5-0.4-0.9-1.1-1.3-2c-2,2.1-4.8,3.2-8.5,3.2c-5.9,0-8.9-3.3-8.9-9.9v-15.9c0-0.7,0.2-1.2,0.7-1.7c0.5-0.5,1-0.7,1.7-0.7
	c0.7,0,1.2,0.2,1.7,0.7c0.5,0.5,0.7,1,0.7,1.7v15.4c0,1.9,0.3,3.3,1,4.3c0.8,1.1,2.2,1.6,4.1,1.6c3.2,0,5.4-1.2,6.6-3.7v-17.6
	c0-0.7,0.2-1.2,0.7-1.7c0.5-0.5,1-0.7,1.7-0.7c0.7,0,1.2,0.2,1.7,0.7c0.5,0.5,0.7,1,0.7,1.7V152c0,1.7,0.6,2.9,1.7,3.4
	C208.5,155.7,208.9,156.3,208.9,157z M387.4,155.4c-1-0.6-1.5-1.7-1.5-3.4v-10.1c0-3.7-0.7-6.5-2.1-8.2c-1.6-1.9-4.3-2.8-8-2.8
	c-3.3,0-6,0.6-8,1.9c-0.7,0.4-1,1-1,1.7c0,0.5,0.2,1,0.6,1.4c0.4,0.4,0.9,0.6,1.4,0.6c0.4,0,0.7-0.1,1.1-0.3
	c1.7-0.9,3.5-1.4,5.6-1.4c2.2,0,3.7,0.5,4.5,1.6c0.7,0.9,1.1,2.6,1.1,4.9v1.3H375c-3.3,0-5.8,0.7-7.6,2.2c-1.6,1.4-2.4,3.3-2.4,5.7
	v0.4c0,2.4,0.7,4.3,2.2,5.7c1.6,1.5,4.1,2.3,7.3,2.3c3.4,0,5.9-0.9,7.6-2.8c0.3,0.8,0.7,1.3,1.1,1.6c0.8,0.8,1.7,1.1,2.8,1.1
	c1.6,0,2.3-0.7,2.3-2.1C388.4,156.3,388.1,155.8,387.4,155.4z M381.2,149.6c0,3.8-2,5.7-5.9,5.7c-3.7,0-5.6-1.4-5.6-4.3v-0.4
	c0-2.8,1.9-4.3,5.8-4.3h5.7V149.6z M230.9,133.4c0,0.7-0.2,1.2-0.7,1.7c-0.4,0.5-1,0.7-1.6,0.7c-0.2,0-0.4,0-0.7-0.1
	c-0.3,0-0.6-0.1-0.9-0.1c-0.3-0.1-0.6-0.1-1-0.1c-0.3,0-0.6-0.1-0.8-0.1c-3.3,0-5.4,1.7-6.1,5v16.3c0,0.7-0.2,1.3-0.7,1.7
	c-0.5,0.5-1,0.7-1.7,0.7s-1.2-0.2-1.7-0.7c-0.5-0.5-0.7-1-0.7-1.7v-18.4c0-1.7-0.6-2.9-1.7-3.4c-0.6-0.3-0.9-0.9-0.9-1.6
	c0-1.4,0.8-2.1,2.3-2.1c0.4,0,0.7,0,0.8,0.1c1.8,0.5,3,1.6,3.7,3.4c1.8-2.5,4.3-3.8,7.5-3.8c1.5,0,2.7,0.2,3.7,0.7
	C230.5,131.9,230.9,132.6,230.9,133.4z M242.4,130.9c-3.7,0-6.5,1.1-8.4,3.3c-1.7,2-2.6,4.7-2.6,8v5.6c0,3.3,0.9,6,2.6,8
	c1.9,2.2,4.7,3.3,8.4,3.3c3.7,0,6.6-1.1,8.5-3.3c1.7-2,2.6-4.7,2.6-8v-5.6c0-3.3-0.9-6-2.6-8C249,132,246.1,130.9,242.4,130.9z
	 M248.6,147.8c0,4.6-2.1,6.9-6.2,6.9c-4.1,0-6.2-2.3-6.2-6.9v-5.6c0-4.6,2.1-6.9,6.2-6.9c4.1,0,6.2,2.3,6.2,6.9V147.8z M270.7,130.9
	c-2.5,0-4.9,0.8-7.1,2.4c-0.3-0.5-0.7-0.9-1-1.3c-0.9-0.8-1.8-1.1-2.9-1.1c-1.6,0-2.3,0.7-2.3,2.1c0,0.7,0.3,1.3,0.9,1.6
	c1,0.5,1.5,1.7,1.5,3.4v28.4c0,0.7,0.2,1.3,0.7,1.7c0.5,0.5,1,0.7,1.7,0.7s1.2-0.2,1.7-0.7c0.5-0.5,0.7-1,0.7-1.7v-9.4
	c1.9,1.4,4,2.1,6.5,2.1c6.5,0,9.8-4.1,9.8-12.2v-5C280.8,134.5,277.4,130.9,270.7,130.9z M276,147.6c0,4.9-1.9,7.4-5.8,7.4
	c-2.1,0-4-0.8-5.7-2.5v-15.1c1.7-1.5,3.6-2.3,5.5-2.3c4,0,6,2.2,6,6.6V147.6z M168.9,130.9c-3.6,0-6.3,1.1-8.2,3.4
	c-1.7,2-2.5,4.7-2.5,8.1v5.1c0,3.4,0.8,6.1,2.5,8.1c1.9,2.3,4.6,3.4,8.3,3.4c3.3,0,6.1-0.7,8.6-2c0.7-0.4,1.1-1,1.1-1.7
	c0-0.5-0.2-1-0.5-1.5c-0.4-0.4-0.8-0.7-1.4-0.7c-0.3,0-0.6,0.1-0.8,0.2c-1.9,1-4.2,1.5-6.8,1.5c-4.1,0-6.2-2.4-6.2-7.1v-1.5h14.9
	c1.2,0,1.8-0.6,1.8-1.9v-2.2c0-3.4-0.8-6.1-2.3-8C175.4,132,172.6,130.9,168.9,130.9z M174.9,142.6h-12.1v-0.9c0-4.6,2-6.9,6.1-6.9
	c4,0,5.9,2.3,5.9,6.9V142.6z M296.3,130.9c-3.6,0-6.3,1.1-8.2,3.4c-1.7,2-2.5,4.7-2.5,8.1v5.1c0,3.4,0.8,6.1,2.5,8.1
	c1.9,2.3,4.6,3.4,8.3,3.4c3.3,0,6.1-0.7,8.6-2c0.7-0.4,1.1-1,1.1-1.7c0-0.5-0.2-1-0.5-1.5c-0.4-0.4-0.8-0.7-1.4-0.7
	c-0.3,0-0.6,0.1-0.8,0.2c-1.9,1-4.2,1.5-6.8,1.5c-4.1,0-6.2-2.4-6.2-7.1v-1.5h14.9c1.2,0,1.8-0.6,1.8-1.9v-2.2c0-3.4-0.8-6.1-2.3-8
	C302.9,132,300.1,130.9,296.3,130.9z M302.4,142.6h-12.1v-0.9c0-4.6,2-6.9,6.1-6.9c4,0,5.9,2.3,5.9,6.9V142.6z M360.2,140.8v15.8
	c0,0.7-0.2,1.3-0.7,1.7c-0.5,0.5-1,0.7-1.7,0.7c-0.7,0-1.2-0.2-1.7-0.7c-0.5-0.5-0.7-1-0.7-1.7v-15.4c0-1.9-0.3-3.3-1-4.3
	c-0.8-1.1-2.2-1.6-4.1-1.6c-3.1,0-5.3,1.1-6.6,3.4v17.8c0,0.7-0.2,1.3-0.7,1.7c-0.5,0.5-1,0.7-1.7,0.7c-0.7,0-1.2-0.2-1.7-0.7
	c-0.5-0.5-0.7-1-0.7-1.7v-18.4c0-1.7-0.6-2.9-1.7-3.4c-0.6-0.3-0.9-0.9-0.9-1.6c0-1.4,0.8-2.1,2.3-2.1c1,0,2,0.4,2.9,1.1
	c0.5,0.5,0.9,1.1,1.2,1.8c2-2.2,4.8-3.3,8.5-3.3C357.2,130.9,360.2,134.2,360.2,140.8z M332.8,155.4c-1-0.6-1.5-1.7-1.5-3.4v-10.1
	c0-3.7-0.7-6.5-2.1-8.2c-1.6-1.9-4.3-2.8-8-2.8c-3.3,0-6,0.6-8,1.9c-0.7,0.4-1,1-1,1.7c0,0.5,0.2,1,0.6,1.4c0.4,0.4,0.9,0.6,1.4,0.6
	c0.4,0,0.7-0.1,1.1-0.3c1.7-0.9,3.5-1.4,5.6-1.4c2.2,0,3.7,0.5,4.5,1.6c0.7,0.9,1.1,2.6,1.1,4.9v1.3h-6.2c-3.3,0-5.8,0.7-7.6,2.2
	c-1.6,1.4-2.4,3.3-2.4,5.7v0.4c0,2.4,0.7,4.3,2.2,5.7c1.6,1.5,4.1,2.3,7.3,2.3c3.4,0,5.9-0.9,7.6-2.8c0.3,0.8,0.7,1.3,1.1,1.6
	c0.8,0.8,1.7,1.1,2.8,1.1c1.6,0,2.3-0.7,2.3-2.1C333.7,156.3,333.4,155.8,332.8,155.4z M326.5,149.6c0,3.8-2,5.7-5.9,5.7
	c-3.7,0-5.6-1.4-5.6-4.3v-0.4c0-2.8,1.9-4.3,5.8-4.3h5.7V149.6z M163.8,115.4c0.3,0.2,0.8,0.4,1.4,0.6s1.4,0.3,2.2,0.3
	c1,0,2-0.2,2.8-0.6c0.8-0.4,1.5-0.9,2.1-1.6s1-1.5,1.3-2.4c0.3-0.9,0.4-2,0.4-3.1c0-1.2-0.2-2.2-0.5-3.2c-0.3-0.9-0.8-1.7-1.5-2.4
	c-0.6-0.7-1.4-1.2-2.3-1.5c-0.9-0.4-1.9-0.5-3-0.5c-1.2,0-2.3,0.1-3.2,0.3c-0.9,0.2-1.7,0.3-2.3,0.5v19.3h2.6V115.4z M163.8,103.8
	c0.3-0.1,0.6-0.1,1-0.2c0.4-0.1,1-0.1,1.8-0.1c1.4,0,2.5,0.5,3.4,1.4c0.8,0.9,1.3,2.2,1.3,3.9c0,0.7-0.1,1.4-0.2,2.1
	c-0.1,0.6-0.4,1.2-0.7,1.7s-0.8,0.8-1.3,1.1c-0.5,0.3-1.2,0.4-1.9,0.4c-0.7,0-1.4-0.1-2-0.4c-0.6-0.2-1.1-0.5-1.4-0.8V103.8z
	 M188.7,114.3c0.6-0.7,1.1-1.5,1.4-2.4c0.3-0.9,0.5-2,0.5-3.1c0-1.1-0.2-2.2-0.5-3.1c-0.3-0.9-0.8-1.8-1.4-2.4
	c-0.6-0.7-1.3-1.2-2.2-1.6c-0.8-0.4-1.8-0.5-2.7-0.5s-1.9,0.2-2.7,0.5c-0.8,0.4-1.6,0.9-2.2,1.6c-0.6,0.7-1.1,1.5-1.4,2.4
	c-0.3,0.9-0.5,2-0.5,3.1c0,1.2,0.2,2.2,0.5,3.1c0.3,0.9,0.8,1.7,1.4,2.4c0.6,0.7,1.3,1.2,2.2,1.6c0.8,0.4,1.8,0.5,2.7,0.5
	s1.9-0.2,2.7-0.5C187.3,115.5,188.1,115,188.7,114.3z M183.8,114.1c-1.3,0-2.3-0.5-3-1.4c-0.7-1-1.1-2.3-1.1-3.9s0.4-2.9,1.1-3.9
	c0.7-1,1.7-1.4,3-1.4s2.3,0.5,3,1.4c0.7,1,1.1,2.3,1.1,3.9s-0.4,2.9-1.1,3.9C186,113.6,185,114.1,183.8,114.1z M212.9,101.5
	c-0.7,2.9-1.5,5.5-2.3,8c-0.8,2.5-1.7,4.7-2.5,6.6h-2.3c-0.5-1.3-1.1-2.9-1.7-4.6s-1.1-3.5-1.6-5.4c-0.5,1.9-1,3.7-1.6,5.4
	c-0.6,1.7-1.1,3.3-1.7,4.6H197c-0.9-1.9-1.7-4.1-2.5-6.6c-0.8-2.5-1.6-5.1-2.3-8h2.8c0.2,0.9,0.4,1.8,0.7,2.9c0.3,1,0.5,2.1,0.8,3.1
	c0.3,1,0.6,2,0.9,3c0.3,1,0.6,1.8,0.9,2.5c0.3-0.9,0.6-1.8,0.9-2.8s0.6-2,0.9-3c0.3-1,0.5-2,0.8-2.9s0.5-1.9,0.7-2.7h2.2
	c0.2,0.8,0.4,1.7,0.6,2.7s0.5,1.9,0.8,2.9c0.3,1,0.6,2,0.9,3c0.3,1,0.6,1.9,0.9,2.8c0.3-0.7,0.6-1.5,0.9-2.5c0.3-1,0.6-1.9,0.9-3
	c0.3-1,0.6-2.1,0.8-3.1c0.3-1,0.5-2,0.7-2.9H212.9z M216.6,114.2c0.6,0.7,1.4,1.2,2.3,1.6c0.9,0.4,2,0.6,3.3,0.6
	c1,0,1.9-0.1,2.7-0.3c0.8-0.2,1.3-0.4,1.7-0.5l-0.4-2.2c-0.3,0.1-0.8,0.3-1.4,0.5c-0.6,0.2-1.4,0.2-2.3,0.2c-1.6,0-2.8-0.4-3.6-1.2
	c-0.8-0.8-1.2-1.9-1.3-3.4h10c0-0.1,0-0.3,0-0.5s0-0.3,0-0.4c0-2.5-0.5-4.4-1.6-5.6c-1-1.2-2.5-1.8-4.5-1.8c-0.8,0-1.7,0.2-2.5,0.5
	c-0.8,0.3-1.5,0.8-2.1,1.4c-0.6,0.6-1.1,1.4-1.5,2.4c-0.4,1-0.6,2.1-0.6,3.4c0,1.1,0.1,2.1,0.4,3C215.6,112.8,216,113.6,216.6,114.2
	z M218,105.9c0.2-0.5,0.4-0.9,0.7-1.3c0.3-0.4,0.7-0.7,1.2-0.9c0.5-0.2,1-0.4,1.6-0.4c1.1,0,1.9,0.4,2.5,1.1
	c0.6,0.8,0.9,1.7,0.9,2.9h-7.2C217.7,106.9,217.8,106.4,218,105.9z M233.9,116.1h-2.6v-13.9c0.6-0.2,1.4-0.4,2.3-0.6
	c0.9-0.2,1.9-0.3,3.1-0.3c0.2,0,0.5,0,0.8,0c0.3,0,0.6,0.1,0.9,0.1c0.3,0,0.5,0.1,0.8,0.1c0.2,0,0.4,0.1,0.5,0.1l-0.4,2.3
	c-0.2-0.1-0.5-0.2-1-0.3c-0.5-0.1-1.1-0.2-1.8-0.2c-0.5,0-1,0.1-1.4,0.2c-0.5,0.1-0.8,0.2-0.9,0.2V116.1z M247.9,101.1
	c-0.8,0-1.7,0.2-2.5,0.5c-0.8,0.3-1.5,0.8-2.1,1.4c-0.6,0.6-1.1,1.4-1.5,2.4c-0.4,1-0.6,2.1-0.6,3.4c0,1.1,0.1,2.1,0.4,3
	c0.3,0.9,0.7,1.7,1.3,2.4c0.6,0.7,1.4,1.2,2.3,1.6c0.9,0.4,2,0.6,3.3,0.6c1,0,1.9-0.1,2.7-0.3c0.8-0.2,1.3-0.4,1.7-0.5l-0.4-2.2
	c-0.3,0.1-0.8,0.3-1.4,0.5c-0.6,0.2-1.4,0.2-2.3,0.2c-1.6,0-2.8-0.4-3.6-1.2c-0.8-0.8-1.2-1.9-1.3-3.4h10c0-0.1,0-0.3,0-0.5
	s0-0.3,0-0.4c0-2.5-0.5-4.4-1.6-5.6C251.4,101.7,249.9,101.1,247.9,101.1z M244.1,107.4c0.1-0.5,0.2-1,0.3-1.5
	c0.2-0.5,0.4-0.9,0.7-1.3c0.3-0.4,0.7-0.7,1.2-0.9c0.5-0.2,1-0.4,1.6-0.4c1.1,0,1.9,0.4,2.5,1.1c0.6,0.8,0.9,1.7,0.9,2.9H244.1z
	 M258.9,114.4c0.6,0.7,1.4,1.2,2.3,1.5c0.9,0.4,1.9,0.5,3,0.5c1.2,0,2.3-0.1,3.2-0.3s1.7-0.3,2.3-0.5V94.3l-2.6,0.4v7.4
	c-0.3-0.2-0.8-0.4-1.4-0.6c-0.6-0.2-1.4-0.3-2.2-0.3c-1,0-2,0.2-2.8,0.6c-0.8,0.4-1.5,0.9-2.1,1.6c-0.6,0.7-1,1.5-1.3,2.4
	c-0.3,0.9-0.4,2-0.4,3.1c0,1.2,0.2,2.2,0.5,3.2C257.8,112.9,258.3,113.7,258.9,114.4z M259.9,106.7c0.1-0.7,0.4-1.2,0.7-1.7
	c0.3-0.5,0.8-0.8,1.3-1.1c0.5-0.3,1.2-0.4,1.9-0.4c0.7,0,1.4,0.1,2,0.4c0.6,0.2,1.1,0.5,1.4,0.8v9.2c-0.3,0.1-0.6,0.1-1.1,0.2
	c-0.5,0.1-1.1,0.1-1.8,0.1c-1.4,0-2.5-0.5-3.4-1.4c-0.8-0.9-1.3-2.2-1.3-3.9C259.7,108,259.7,107.3,259.9,106.7z M289.3,115.9
	c0.9-0.4,1.7-0.9,2.3-1.5c0.6-0.7,1.1-1.5,1.5-2.4c0.3-0.9,0.5-2,0.5-3.2c0-1.1-0.1-2.1-0.4-3.1c-0.3-0.9-0.7-1.7-1.3-2.4
	c-0.6-0.7-1.2-1.2-2.1-1.6c-0.8-0.4-1.7-0.6-2.8-0.6c-0.8,0-1.6,0.1-2.2,0.3c-0.6,0.2-1.1,0.4-1.4,0.6v-7.8l-2.6,0.4v20.9
	c0.6,0.2,1.4,0.3,2.3,0.5c0.9,0.2,2,0.3,3.2,0.3C287.4,116.4,288.4,116.2,289.3,115.9z M284.4,114c-0.5-0.1-0.8-0.1-1.1-0.2v-9.2
	c0.3-0.3,0.8-0.5,1.4-0.8s1.3-0.4,2-0.4c0.7,0,1.4,0.1,1.9,0.4s1,0.6,1.3,1.1c0.3,0.5,0.6,1,0.7,1.7s0.2,1.4,0.2,2.1
	c0,1.7-0.4,3-1.3,3.9c-0.8,0.9-2,1.4-3.4,1.4C285.5,114.1,284.9,114.1,284.4,114z M305.3,101.5h2.7c-0.7,2.7-1.4,5.4-2.2,7.9
	s-1.7,4.9-2.7,7.1c-0.4,0.8-0.8,1.6-1.2,2.2c-0.4,0.6-0.8,1.1-1.3,1.5c-0.5,0.4-1,0.7-1.6,0.9s-1.3,0.3-2.1,0.3c-0.2,0-0.4,0-0.6,0
	c-0.2,0-0.4-0.1-0.7-0.1c-0.2,0-0.4-0.1-0.6-0.2c-0.2-0.1-0.3-0.1-0.4-0.1l0.5-2.1c0.2,0.1,0.5,0.2,0.8,0.3c0.3,0.1,0.6,0.1,1,0.1
	c1,0,1.8-0.2,2.4-0.7c0.6-0.5,1.1-1.2,1.6-2.2c-1.2-2.2-2.3-4.6-3.3-7.1c-1-2.5-1.9-5.1-2.5-7.6h2.8c0.2,0.8,0.5,1.7,0.7,2.7
	c0.3,1,0.6,2,1,3c0.4,1,0.7,2.1,1.1,3.1c0.4,1,0.8,2,1.3,3c0.7-2,1.3-3.9,1.8-5.8C304.4,105.5,304.9,103.5,305.3,101.5z"/>
<g>
</g>
<g>
</g>
<g>
</g>
<g>
</g>
<g>
</g>
<g>
</g>
</svg>
