<?xml version="1.0" encoding="utf-8"?>
<!-- Generator: Adobe Illustrator 20.1.0, SVG Export Plug-In . SVG Version: 6.00 Build 0)  -->
<svg version="1.1" baseProfile="tiny" id="Layer_1" xmlns="http://www.w3.org/2000/svg" xmlns:xlink="http://www.w3.org/1999/xlink"
	 x="0px" y="0px" viewBox="0 0 16 16" xml:space="preserve">
<style type="text/css">
	.st0{fill:#777777;
;}
</style>
<path class="st0" d="M14.6,9.8c0,1.8-1.4,3.1-3.1,3.4c-1.7,0.3-3.1-0.4-3.1-1.7c0-1.3,1.4-2.7,3.1-3c0.4-0.1,0.8-0.1,1.2-0.1h0.4V4.9L6.8,6.3
		v5.3c0,1.8-1.4,3.1-3.1,3.4c-1.7,0.3-3.1-0.4-3.1-1.7c0-1.3,1.4-2.7,3.1-3c0.4-0.1,0.8-0.1,1.2-0.1h0.4V3.8c0-0.5,0.4-1,0.9-1.1
		l7.6-1.7c0.5-0.1,0.9,0.2,0.9,0.7V9.8z"/>
</svg>
