<?xml version="1.0" encoding="utf-8"?>
<!-- Generator: Adobe Illustrator 20.1.0, SVG Export Plug-In . SVG Version: 6.00 Build 0)  -->
<svg version="1.1" id="Layer_1" xmlns="http://www.w3.org/2000/svg" xmlns:xlink="http://www.w3.org/1999/xlink" x="0px" y="0px"
	 viewBox="0 0 512 512" style="enable-background:new 0 0 512 512;" xml:space="preserve">
<g>
	<path d="M371.5,235.8c-35.6,0-64.8,28.7-64.8,64.8c0,35.5,29.2,64.8,64.8,64.8c35.5,0,64.8-29.3,64.8-64.8
		C436.3,264.5,407,235.8,371.5,235.8z"/>
	<path d="M438.1,155.8L160.2,66.2l-1.4,4.4L79.1,45.2l4.1-9.8c-7-2.9-15.1,0.4-18.1,7.5c-3,7.1,0.3,15.2,7.4,18.2l2.8-6.6l80.5,25.6
		l-1.4,4.5l219.3,70.8H80.9v0c-24.5,0-44.4,19.9-44.4,44.4v201.7c0,24,19.9,44.4,44.4,44.4h350.1c24.6,0,44.4-20.4,44.4-44.4V199.7
		C475.5,177.6,459.3,159.2,438.1,155.8z M73.2,403.9c0-2.3-1.9-4.3-4.3-4.3v-25.4c16.3,0,29.6,13.3,29.6,29.6H73.2z M113.4,403.9
		c0-24.5-19.9-44.4-44.4-44.4v-25.4c38.5,0,69.8,31.3,69.8,69.8H113.4z M155.1,403.9c0-47.5-38.6-86.1-86.1-86.1v-25.4
		c15,0,29.6,2.9,43.4,8.8c13.3,5.6,25.2,13.7,35.4,23.9c10.2,10.2,18.3,22.2,23.9,35.4c5.8,13.8,8.8,28.4,8.8,43.4H155.1z
		 M197.5,403.9c0-70.9-57.7-128.5-128.5-128.5V250c20.8,0,40.9,4.1,59.9,12.1c18.3,7.8,34.8,18.8,48.9,33
		c14.1,14.1,25.2,30.6,33,48.9c8,19,12.1,39.1,12.1,59.9H197.5z M238.9,403.9C238.9,310.2,162.7,234,69,234v-25.4
		c26.4,0,51.9,5.2,76,15.4c23.3,9.8,44.1,23.9,62.1,41.9c17.9,17.9,32,38.8,41.9,62.1c10.2,24.1,15.4,49.7,15.4,76H238.9z
		 M371.5,381c-44.4,0-80.5-36.1-80.5-80.5c0-44.4,36.1-80.5,80.5-80.5c44.4,0,80.5,36.1,80.5,80.5C452,345,415.9,381,371.5,381z"/>
</g>
</svg>
