<?xml version="1.0" encoding="utf-8"?>
<!-- Generator: Adobe Illustrator 20.1.0, SVG Export Plug-In . SVG Version: 6.00 Build 0)  -->
<svg version="1.1" baseProfile="tiny" id="Layer_1" xmlns="http://www.w3.org/2000/svg" xmlns:xlink="http://www.w3.org/1999/xlink"
	 x="0px" y="0px" viewBox="0 0 16 16" xml:space="preserve">
  <style type="text/css">
	.st0{fill:#000000;}
  </style>
<path class="st0" d="M2.1,1.1c0.1,0,0.2,0,0.3,0l8.2,6.7c0.1,0.1,0.1,0.1,0.1,0.2c0,0.1,0,0.2-0.1,0.2L2.4,15
	c0,0-0.1,0.1-0.2,0.1c0,0-0.1,0-0.1,0c-0.1,0-0.2-0.1-0.2-0.3V1.3C1.9,1.2,2,1.1,2.1,1.1z M12.1,1h1.8c0.2,0,0.3,0.1,0.3,0.3v13.4
	c0,0.2-0.1,0.3-0.3,0.3h-1.8c-0.2,0-0.3-0.1-0.3-0.3V1.3C11.8,1.1,12,1,12.1,1z"/>
</svg>
